Coordinates
version=1
nRows=24
nColumns=26
inDegrees=yes

Units are S.I. units (second, meters, Newtons, ...)
Angles are in degrees.

endheader
time	pelvis_tilt	pelvis_list	pelvis_rotation	pelvis_tx	pelvis_ty	pelvis_tz	hip_flexion_r	hip_adduction_r	hip_rotation_r	knee_angle_r	knee_angle_r_beta	ankle_angle_r	subtalar_angle_r	mtp_angle_r	hip_flexion_l	hip_adduction_l	hip_rotation_l	knee_angle_l	knee_angle_l_beta	ankle_angle_l	subtalar_angle_l	mtp_angle_l	lumbar_extension	lumbar_bending	lumbar_rotation
     34.90979592	    -18.18926234	      3.18787493	      0.55501447	      0.20798695	      0.89902378	      0.23837599	      1.68445191	     -0.94952043	      2.71248985	     16.73260519	     16.73260519	     -6.42368736	     -1.90987242	      0.00000000	     49.43750802	      5.54696856	     -0.67519127	     76.96465096	     76.96465096	      1.10736971	    -19.92418071	      0.00000000	      7.42990313	     -6.13735026	     21.04717602
     34.91979592	    -18.49799279	      3.80724956	      0.89111574	      0.21167028	      0.90574722	      0.23745998	     -0.49466010	     -1.94068845	      1.56951441	     14.16206665	     14.16206665	    -12.12499772	     -0.95200909	      0.00000000	     48.77814956	      6.51786448	     -0.39526210	     69.99922885	     69.99922885	      1.46106630	    -18.53495557	      0.00000000	      8.52838571	     -7.02577291	     21.46856124
     34.92979592	    -18.49452592	      4.12682036	      1.23613799	      0.21542220	      0.91190926	      0.23661462	     -2.76735752	     -2.48365153	      0.74247059	     12.00933810	     12.00933810	    -17.53524750	     -0.77894052	      0.00000000	     47.49927708	      7.23095859	      0.22492423	     62.70298770	     62.70298770	      1.75593218	    -16.89328241	      0.00000000	      9.22281467	     -7.56202509	     21.63560222
     34.93979592	    -18.74695417	      4.10451168	      1.44394943	      0.21832867	      0.91690208	      0.23605229	     -3.97602383	     -2.62085719	      0.08456638	     11.32418612	     11.32418612	    -22.07702748	     -0.74858616	      0.00000000	     46.32417090	      7.51727256	      1.08664198	     55.16143491	     55.16143491	      1.91783771	    -14.95536500	      0.00000000	     10.08384155	     -7.69951545	     21.75821269
     34.94979592	    -19.11804182	      3.57219865	      1.45793240	      0.22053506	      0.92054905	      0.23588541	     -4.31919072	     -2.16643513	     -0.11766236	     12.14017822	     12.14017822	    -25.80100719	     -1.09262850	      0.00000000	     45.18981600	      7.13597183	      2.08673170	     47.61063873	     47.61063873	      2.05198898	    -12.82654384	      0.00000000	     11.01311030	     -7.17593006	     21.82313518
     34.95979592	    -19.11773100	      2.85013074	      1.34798172	      0.22232920	      0.92351931	      0.23609027	     -4.54465797	     -1.35546148	      0.80779016	     14.21282493	     14.21282493	    -28.86667405	     -2.44430556	      0.00000000	     43.53581723	      6.42737987	      3.08608151	     39.98643607	     39.98643607	      2.15461913	    -10.51630518	      0.00000000	     11.35528223	     -6.42683308	     21.71724267
     34.96979592	    -18.80859803	      1.84650585	      1.01335026	      0.22392684	      0.92557979	      0.23675470	     -4.65525007	     -0.11349014	      2.47468768	     17.41412032	     17.41412032	    -29.97566339	     -3.70620663	      0.00000000	     41.55376293	      5.22932420	      3.96139418	     32.64592866	     32.64592866	      2.40800924	     -8.08742938	      0.00000000	     11.25576419	     -5.30856253	     21.59848326
     34.97979592	    -18.13999624	      0.77314810	      0.68381007	      0.22546090	      0.92667027	      0.23733111	     -4.75121610	      1.22878697	      3.75973738	     21.62770977	     21.62770977	    -29.36428268	     -4.46907378	      0.00000000	     39.32437210	      3.90948024	      4.62883537	     25.95870164	     25.95870164	      2.83929135	     -5.61574261	      0.00000000	     10.63509817	     -4.10273542	     21.25731071
     34.98979592	    -17.24106907	     -0.28869066	      0.57163828	      0.22669215	      0.92679803	      0.23728424	     -4.77105744	      2.52942076	      4.42139587	     26.50531553	     26.50531553	    -28.33149948	     -5.24378637	      0.00000000	     37.08233008	      2.73334454	      5.36565183	     20.21659217	     20.21659217	      3.22343367	     -3.17756367	      0.00000000	      9.62514971	     -2.85654350	     20.58431784
     34.99979592	    -16.15860235	     -0.68651551	      0.60773931	      0.22768592	      0.92614688	      0.23657445	     -4.57970133	      2.88884243	      4.04804101	     32.08615324	     32.08615324	    -27.22313475	     -5.49303982	      0.00000000	     34.81018313	      2.27298865	      5.77849047	     15.40141623	     15.40141623	      2.98506228	     -1.70473449	      0.00000000	      8.32434775	     -2.38999900	     19.82959745
     35.00979592	    -15.31993371	     -0.83348683	      0.93776933	      0.22801687	      0.92421684	      0.23524577	     -3.85397090	      2.93303243	      3.27336793	     38.01991861	     38.01991861	    -26.69987622	     -6.76170841	      0.00000000	     33.13739606	      2.28106456	      6.47753726	     11.88702938	     11.88702938	      2.80387223	     -0.96640672	      0.00000000	      7.23201612	     -2.22813133	     18.71200857
     35.01979592	    -14.70425232	     -0.69416680	      1.55651913	      0.22758834	      0.92115213	      0.23356582	     -2.67461081	      2.59651540	      2.11283088	     44.18948708	     44.18948708	    -26.89391656	     -8.93509130	      0.00000000	     32.06661428	      2.73568864	      7.04285757	      9.69639375	      9.69639375	      2.97594962	     -0.12495541	      0.00000000	      6.27167191	     -2.44785195	     17.27386445
     35.02979592	    -14.05028642	     -0.54810204	      2.33118524	      0.22664949	      0.91710138	      0.23182061	     -1.41675838	      2.22693995	      0.94390997	     50.41035343	     50.41035343	    -27.38668693	    -11.43981571	      0.00000000	     31.31993757	      3.30531332	      7.09891834	      8.88012526	      8.88012526	      2.95326715	      0.78569184	      0.00000000	      5.15749091	     -2.67018947	     15.54620895
     35.03979592	    -13.59748369	     -0.23627919	      3.04273967	      0.22508205	      0.91172476	      0.23034881	      0.29306608	      1.51498183	     -0.38770243	     56.78891731	     56.78891731	    -28.61480142	    -14.85760776	      0.00000000	     31.14690498	      4.01977028	      6.42423194	      9.43780821	      9.43780821	      2.38213014	      1.46448031	      0.00000000	      4.21473683	     -3.08497588	     14.24093662
     35.04979592	    -12.70634980	      0.08673242	      3.89132058	      0.22346859	      0.90580453	      0.22878516	      1.53406936	      0.67370803	     -1.78582692	     62.99512444	     62.99512444	    -29.15395702	    -17.52217415	      0.00000000	     30.55848489	      4.80763442	      6.40481400	     10.89166744	     10.89166744	      2.34611432	      1.83080308	      0.00000000	      2.69578631	     -3.44593461	     12.60002136
     35.05979592	    -12.39854478	      0.33390817	      4.48528396	      0.22127469	      0.89827009	      0.22780696	      3.64156430	     -0.15865193	     -2.78646210	     69.26404031	     69.26404031	    -29.94467860	    -20.41764530	      0.00000000	     30.82665086	      5.41904858	      6.58348860	     13.32126851	     13.32126851	      1.89007500	      1.57055517	      0.00000000	      1.85109083	     -3.76339786	     11.36855477
     35.06979592	    -11.87967271	      0.93478119	      5.20239427	      0.21915963	      0.89039943	      0.22624089	      5.49070032	     -1.64175813	     -3.88615297	     75.29954833	     75.29954833	    -29.68725403	    -22.22493249	      0.00000000	     30.96464326	      6.54826536	      6.98776709	     16.61949790	     16.61949790	      0.37252702	     -0.82006759	      0.00000000	      0.68436512	     -4.43183191	      9.91158456
     35.07979592	    -11.59629769	      1.89361485	      6.13085601	      0.21652580	      0.88176404	      0.22397839	      7.65843120	     -3.79610884	     -4.96938381	     81.21968247	     81.21968247	    -28.75763798	    -23.27024082	      0.00000000	     31.51229224	      8.37820204	      7.61047785	     21.20225623	     21.20225623	      0.46547504	     -4.60222764	      0.00000000	     -0.36917000	     -5.48810835	      8.15131234
     35.08979592	    -11.87474750	      2.75678451	      6.93821871	      0.21265806	      0.87185408	      0.22186714	     10.77104896	     -5.96191703	     -5.50282687	     87.18220556	     87.18220556	    -27.04551530	    -23.29053756	      0.00000000	     32.99814312	     10.41418597	      8.28557207	     27.17109053	     27.17109053	      4.18007965	     -7.67052083	      0.00000000	     -0.91574525	     -6.44073909	      6.73952979
     35.09979592	    -12.01230132	      3.15985925	      7.52552749	      0.20825076	      0.86180059	      0.22069649	     14.00879926	     -7.48668858	     -5.58609508	     92.74348807	     92.74348807	    -25.17629290	    -22.95243017	      0.00000000	     35.05434841	     11.58028686	      7.63559759	     34.26615944	     34.26615944	      8.82766095	     -7.74222372	      0.00000000	     -1.68550552	     -6.88412381	      5.43576658
     35.10979592	    -10.90748897	      3.78666630	      7.89768017	      0.20434906	      0.85448325	      0.21990720	     15.89441755	     -8.97390049	     -5.36194115	     97.34308127	     97.34308127	    -24.11762488	    -23.16139940	      0.00000000	     34.93252119	     12.71791702	      7.81685308	     39.77966562	     39.77966562	     11.75528711	     -8.96012755	      0.00000000	     -4.02995163	     -7.35885439	      4.33717867
     35.11979592	    -11.26255724	      3.82783086	      7.92184811	      0.19940795	      0.84629563	      0.22056872	     20.08515265	     -9.50585490	     -4.28710647	    101.85243017	    101.85243017	    -21.62705545	    -21.09080759	      0.00000000	     35.77843557	     12.66977360	      7.31387483	     44.04269920	     44.04269920	     15.68820160	     -7.00215800	      0.00000000	     -4.58609041	     -7.55384532	      3.52437081
     35.12979592	    -10.88160796	      4.34553193	      7.65262571	      0.19546038	      0.84105103	      0.22143428	     23.46139872	    -10.26160855	     -2.91208539	    105.29298715	    105.29298715	    -20.06877630	    -20.12011044	      0.00000000	     34.62354550	     12.77035708	      6.65282007	     46.29009836	     46.29009836	     18.97686122	     -5.83962049	      0.00000000	     -5.98295089	     -8.19553467	      3.05442024
     35.13979592	    -10.86657144	      4.90171681	      7.38400879	      0.19182539	      0.83711434	      0.22236437	     27.30406916	    -10.92814380	     -1.45580779	    107.95910863	    107.95910863	    -18.50113253	    -19.18949048	      0.00000000	     33.33183473	     12.96696868	      6.08561480	     47.58929361	     47.58929361	     21.64207641	     -5.01205161	      0.00000000	     -6.84603097	     -8.94850124	      2.47795863
